<?xml version="1.0" encoding="UTF-8"?>
<svg id="Layer_2" data-name="Layer 2" xmlns="http://www.w3.org/2000/svg" viewBox="0 0 2565.66 1546.11">
  <defs>
    <style>
      .cls-1 {
        fill: #802d80;
      }

      .cls-2 {
        fill: #cd964c;
      }
    </style>
  </defs>
  <g id="Layer_1-2" data-name="Layer 1">
    <g id="layer1">
      <g id="g6801">
        <g id="layer2">
          <g id="g20358">
            <g id="l2txtZAOQC1doniW5OaAjoe">
              <g id="g20295">
                <path id="p10Cc5ZsHX" class="cls-1" d="m216.44,1351.37c-92.38-7.06-207.47-24.55-215.45-32.84-2.76-2.76,0-17.49,11.36-58.93,7.98-30.38,60.46-227.11,116.32-437.34,56.16-210.23,103.73-386.39,105.88-391.61,3.68-9.21,5.52-9.82,49.41-20.87,174.01-42.66,345.27-53.09,465.57-27.93,71.51,14.73,143.02,51.87,174.93,91.15,27.62,33.76,45.11,77.34,45.11,112.63,0,41.12-19.64,100.36-43.27,130.13-18.41,23.02-56.78,57.39-90.84,81.33-14.12,9.51-25.47,18.41-25.47,19.64,0,.92,8.9,8.29,19.95,16.27,50.03,35.6,74.58,90.84,71.2,161.12-5.52,113.55-96.67,231.71-232.33,300.76-50.64,25.78-153.45,53.4-217.59,58.31-55.24,3.99-166.96,3.38-234.78-1.84Zm275.91-174.93c27.31-6.14,68.44-21.48,87.16-32.84,22.1-12.89,49.72-38.67,61.07-56.78,9.82-15.35,19.33-42.66,25.17-72.43,6.14-29.77-4.3-56.16-27.31-70.59-21.18-13.5-43.89-19.64-84.4-23.02-42.05-3.68-168.18-4.6-193.96-1.53l-15.65,1.84-5.22,20.56c-2.76,11.05-7.67,30.08-10.74,41.74-3.07,11.97-9.51,35.29-14.12,52.17-4.3,16.88-10.13,38.36-12.58,47.57-13.5,49.72-19.64,75.19-19.64,82.86s1.23,8.9,13.2,11.05c45.11,7.67,161.74,7.37,197.03-.61Zm111.1-421.38c64.76-15.96,98.21-48.49,110.18-105.57,12.28-57.7-21.79-95.45-96.98-108.34-46.65-7.98-127.06-2.46-162.04,11.36-3.99,1.53-9.21,7.98-11.66,14.12-4.6,10.43-48.49,172.48-50.95,186.6-.92,5.22,1.23,6.44,15.96,8.29,9.21.92,51.56,1.53,93.61.92,64.76-.92,80.72-2.15,101.89-7.37Z"/>
                <path id="pGdFj5SJ8" class="cls-1" d="m1014.08,1338.79c-50.64-.61-93.61-1.53-95.75-2.15-3.99-1.84-1.84-10.43,66.9-267.31,69.36-259.03,115.09-427.21,122.15-449.92,6.44-20.87,10.13-24.25,23.63-24.25,10.13,0,11.97,6.14,7.67,26.7-1.84,9.51-2.76,17.8-2.15,18.72.92.61,43.89,2.46,96.06,3.99,51.87,1.53,99.74,4.3,105.88,6.14,13.5,3.38,23.94,16.57,23.94,30.08,0,8.59-32.84,132.28-146.39,549.66-14.42,53.09-27.31,99.74-28.85,103.73-2.46,6.44-3.68,6.75-41.74,6.14-21.79-.61-80.72-1.23-131.35-1.53Zm-3.68-50.95c4.3-18.11,1.84-20.56-19.03-20.56-15.65,0-19.03.92-23.02,6.75-6.75,9.51-6.44,23.02.61,24.86,2.76.92,12.89,1.23,22.1,1.23q16.57-.61,19.33-12.28Zm64.45,11.36c12.89-1.84,14.42-3.07,17.8-12.58,5.52-16.57,2.76-19.33-20.26-19.33q-20.26,0-24.86,10.74c-5.83,13.81-5.52,19.33,1.23,20.87,8.29,2.15,11.05,2.15,26.09.31Zm95.14-3.99c1.23-1.23,2.46-7.67,3.07-14.42l.61-11.97-18.41-.92c-10.13-.31-20.26.61-22.4,1.84-4.6,3.07-10.43,24.86-7.67,29.16,1.84,2.76,40.82-.31,44.81-3.68Zm-144.86-68.13c4.3-4.3,5.83-9.21,5.22-15.96-.92-9.51-1.23-9.82-18.41-10.74-21.18-1.23-30.08,5.52-30.08,22.4v10.74h18.41c14.42,0,19.64-1.23,24.86-6.44Zm83.78-7.06c5.83-11.66,5.83-11.97,0-16.27-7.06-5.22-34.07-3.38-39.9,2.76-2.15,2.15-4.6,8.29-5.83,13.81-2.15,11.36.92,12.89,24.55,12.28,14.73-.61,15.65-1.23,21.18-12.58Zm76.11,9.82c2.76-2.15,5.83-8.59,7.06-13.81,1.84-8.9,1.23-10.43-6.14-13.2-21.18-7.98-39.9-.61-43.27,17.49-1.84,8.9-1.23,9.82,6.75,11.05,18.11,2.76,31,2.15,35.6-1.53Zm-139.33-70.89c4.91-13.81,4.6-19.64-1.23-21.79-6.75-2.46-32.84-2.15-36.83.61-4.3,2.46-10.74,25.17-8.59,28.85.92,1.23,11.05,2.46,22.4,2.46q20.56,0,24.25-10.13Zm79.79,0c7.37-20.56,4.6-23.63-22.4-23.63-15.65,0-16.57.31-19.64,9.51-7.06,20.56-4.6,23.02,24.25,23.94,13.2.31,14.42-.31,17.8-9.82Zm83.48-5.52c4.3-15.96,1.84-18.11-22.1-18.11-16.57,0-18.11.61-22.4,9.21-2.46,4.91-4.6,11.66-4.6,15.35,0,5.52,1.84,6.14,23.02,6.14h22.71l3.38-12.58Zm-146.39-58.62c2.76-2.15,6.14-8.59,7.06-13.81,1.84-8.9.92-10.43-6.14-13.2-10.74-3.99-25.17-3.99-32.53,0-6.14,3.38-13.81,22.71-10.74,27.62,2.76,4.3,36.21,3.68,42.35-.61Zm83.17-3.07c2.76-3.68,4.91-10.74,4.91-15.35,0-10.43-8.59-13.5-29.16-10.43-15.35,2.46-19.95,7.98-19.95,23.02v9.51h19.64c17.19,0,20.56-.92,24.55-6.75Zm80.1,1.84c3.07-3.38,4.6-8.9,3.99-16.27l-.92-11.05-17.19-.92c-15.65-.92-18.11,0-23.94,7.37-3.68,4.6-6.44,12.28-6.44,16.88q0,8.9,19.64,8.9c14.12,0,21.18-1.53,24.86-4.91Zm-50.64-105.88c4.3-16.27,1.84-18.11-23.63-18.11h-19.03l-3.07,11.66q-5.52,19.03,19.64,19.03h22.71l3.38-12.58Z"/>
                <path id="pZA4WBB5N" class="cls-1" d="m1329.88,1332.65c.92-3.07,8.59-33.15,17.19-66.9,8.59-33.76,26.7-102.2,39.9-151.92,13.2-49.72,37.44-141.48,53.71-204.09,37.75-144.86,52.79-197.65,58.62-206.55,15.96-24.25,166.96-60.77,294.32-71.51,73.35-6.14,196.72.92,207.47,11.66,2.15,2.15.31,13.81-6.44,39.59-18.41,69.97-28.24,104.04-30.69,106.5-1.23,1.53-15.35-.31-31.61-3.68-15.96-3.38-47.88-7.67-71.2-9.51-34.99-2.76-46.65-2.46-69.97,1.53-42.35,7.37-90.23,24.86-99.74,35.91-3.68,4.6-28.54,94.22-84.71,306.29-19.33,73.35-40.2,152.53-46.65,175.86l-11.36,42.05h-110.18c-103.73,0-110.18-.31-108.64-5.22Z"/>
                <path id="pEolOFqKi" class="cls-1" d="m1893.36,1335.72c0-1.23,14.73-57.39,32.53-125.22,148.85-562.25,133.81-508.85,143.32-514.98,31.3-20.56,163.58-51.25,269.15-62.3,76.42-7.98,215.14-2.15,227.11,9.82,3.07,3.07-31.61,141.18-36.52,146.39-1.23,1.23-16.88-.61-34.37-4.3-26.39-5.83-42.35-7.06-91.76-7.06-57.7-.31-60.77,0-85.93,8.29-37.44,12.28-59.23,23.63-63.84,33.15-1.84,4.6-34.07,121.84-71.2,260.87-36.83,138.72-69.05,253.5-71.2,255.04-4.91,3.07-217.29,3.38-217.29.31Z"/>
                <path id="pmzRZFoxR" class="cls-1" d="m351.78,284.88c-27.62-6.44-49.1-23.94-61.07-50.33-10.74-23.32-10.13-67.83,1.53-101.28,10.74-31.3,22.4-51.56,42.05-73.04C374.49,16.03,444.47-8.21,500.63,2.53c24.25,4.6,57.08,15.04,59.54,19.03,2.15,3.99-7.37,43.89-11.97,50.03-3.38,3.99-7.06,3.07-29.16-5.83-31.61-12.89-54.94-17.8-70.28-15.04-43.89,7.98-84.4,52.79-92.99,103.73-6.44,35.6,0,58.93,19.95,74.27,19.64,14.73,48.49,13.2,104.96-5.83,15.65-5.22,29.16-8.59,30.08-7.98,2.15,2.46-13.5,50.64-17.8,54.01-17.49,14.12-106.5,24.25-141.18,15.96Z"/>
                <path id="pFTdMBQjl" class="cls-1" d="m573.67,285.19c-7.67-1.53-18.41-3.68-23.63-4.6-6.75-1.23-10.13-3.68-10.13-7.06,0-5.83,47.57-185.37,60.46-228.03,5.83-20.56,9.51-27.31,14.73-29.77,26.7-12.28,106.5-17.8,139.95-9.82,42.05,9.82,64.14,30.38,64.14,59.85,0,16.57-5.22,26.39-25.47,46.65l-18.72,19.33,7.98,8.29c19.95,21.48,22.4,41.74,9.21,69.97-11.66,24.25-22.71,36.83-44.81,51.25-30.69,19.64-50.95,24.55-109.26,25.78-27.93.61-56.78-.31-64.45-1.84Zm101.28-46.34c35.6-5.83,60.46-29.46,57.7-55.24-1.84-17.8-12.28-22.1-56.16-23.63l-38.36-1.23-3.38,8.59c-5.52,14.42-15.04,54.32-15.04,63.22,0,6.14,1.84,8.59,7.06,9.51,12.89,2.46,28.24,2.15,48.18-1.23Zm50.33-128.59c22.4-10.74,30.69-38.06,15.96-51.87-6.14-5.52-12.28-7.37-31.92-8.59-33.15-2.46-39.9-.31-45.73,13.81-6.75,16.27-13.81,44.19-11.97,48.49,3.68,9.51,53.09,8.29,73.66-1.84Z"/>
                <path id="pk7mNKdKm" class="cls-1" d="m816.13,277.52c0-6.75,50.03-197.95,64.76-247.67l5.83-20.26,23.94-1.23c36.21-2.15,190.28-1.23,192.12.92,1.23.92-.61,11.66-3.38,23.94l-5.52,21.79-64.45.31c-35.29,0-69.97.92-76.42,2.15-11.97,2.15-12.28,2.46-17.8,23.63-9.21,36.21-13.81,33.45,59.54,35.29,34.68.92,64.14,2.46,65.37,3.68,1.23.92-.61,11.36-3.99,23.02l-5.83,20.87-67.83.92-67.83.61-7.98,24.86c-4.3,13.5-7.67,28.54-7.67,33.76v8.9l57.7.31c54.63,0,86.55,1.53,89,4.3.61.61-.31,8.59-2.46,17.49-7.06,29.77,4.91,27.01-118.16,27.01-95.75,0-108.95-.61-108.95-4.6Z"/>
              </g>
            </g>
            <g id="l6WDwpWqDIsJkP2dlA3cUkj">
              <g id="g20309">
                <path id="pnx7BX4S" class="cls-2" d="m1765.68,1543.49c-2.46-2.46-.61-11.05,7.37-31.61,16.27-43.27,16.57-44.5,9.51-48.18-4.3-2.46-5.83-6.44-5.83-16.88,0-17.8,2.46-23.02,10.74-23.02s12.89,4.91,14.42,16.57c.61,7.37,2.76,9.51,11.05,11.66,9.51,2.46,13.2,9.21,6.75,13.2-1.53.92-3.07,4.6-3.07,7.98,0,4.3,2.15,5.83,8.9,5.83,4.91,0,11.05,1.84,13.5,4.3,5.22,5.52,15.96,56.78,12.28,60.46-1.53,1.53-6.75,1.53-11.66.31-7.98-2.15-9.51-4.6-14.12-23.32-3.07-11.66-7.67-23.32-10.13-26.09-4.6-4.3-5.22-4.3-9.82,0-2.46,2.76-7.98,15.04-11.66,27.62-6.44,20.87-7.67,22.71-15.96,23.63-4.91.61-10.43-.61-12.28-2.46Z"/>
                <path id="pCpZ1E7bP" class="cls-2" d="m1439.75,1535.2c-5.83-2.76-12.28-8.29-15.04-11.97-7.98-12.28-13.81-102.81-6.75-107.11,1.84-1.23,7.98-1.23,13.81-.31l10.43,2.15v45.11c0,53.09,2.46,60.46,18.41,60.46s18.72-8.59,19.33-60.77l.61-43.58,11.66-.92c11.05-.92,11.36-.61,11.36,9.51,0,5.83.92,15.04,1.84,20.26,1.84,9.51,2.15,9.51,21.48,9.51,10.43,0,20.26,1.53,21.18,3.07,1.23,1.84,1.23,7.37,0,12.28-3.07,13.81-15.65,15.96-24.86,4.6-10.13-12.89-14.73-8.59-18.72,16.88-3.99,24.55-8.59,31.92-27.01,40.2-15.04,7.06-24.55,7.06-37.75.61Z"/>
                <path id="pV0MXqXKq" class="cls-2" d="m2004.45,1535.51c-15.04-10.43-.92-27.93,16.27-20.26,8.9,4.3,9.82,12.89,2.15,19.95-7.06,6.44-9.82,6.44-18.41.31Z"/>
                <path id="pGqvGCCUe" class="cls-2" d="m907.89,1529.07c-.61-42.35-5.52-93.3-8.9-97.29-5.52-6.75-16.27-6.14-23.32,1.53-4.91,5.52-6.14,12.28-6.75,41.43l-1.23,34.99h-23.94v-32.22c0-51.87,6.75-60.77,45.42-61.07,21.48-.31,23.02,0,31.3,9.51,7.06,7.98,8.9,13.5,10.74,32.53,2.46,25.47,1.23,71.2-2.15,74.27-.92,1.23-6.14,2.76-11.36,3.38-8.59,1.53-9.51.92-9.82-7.06Z"/>
                <path id="p1AhAwjuM9" class="cls-2" d="m960.37,1518.32c0-25.47,12.28-52.17,30.69-67.52,12.89-10.43,13.2-11.05,9.51-20.87-5.52-15.96-4.6-18.41,7.37-18.41s14.73,3.68,21.18,28.24l3.99,16.27,15.04.92c22.71,1.23,27.93,3.07,29.77,10.43,4.6,17.19-12.58,23.94-24.25,9.51-4.91-6.14-7.98-7.67-10.13-5.52-2.46,2.46-.92,11.66,4.91,31.61,4.6,16.88,6.75,29.46,5.22,31s-7.06,2.15-11.97,1.23c-8.9-1.23-9.82-2.76-19.64-34.99-6.44-20.26-11.97-33.45-14.42-33.45-10.74,0-19.33,18.41-24.25,52.79-1.53,11.05-3.68,14.42-8.59,15.96-13.5,3.68-14.42,2.46-14.42-17.19Z"/>
                <path id="pmtiVBGOX" class="cls-2" d="m1116.89,1534.9c-4.3-.61-8.59-2.15-9.82-3.07-1.23-1.23-.92-23.02.31-48.18,2.46-52.17,5.52-60.15,23.94-66.29,6.44-2.15,18.11-2.76,27.93-1.84,24.55,2.46,31.3,10.13,34.68,39.28,3.38,31.61,3.38,69.67-.31,76.73-3.38,6.14-16.57,7.98-19.95,2.46-1.23-1.84-3.07-24.86-4.3-51.25l-1.84-47.88-10.43-2.15c-21.79-4.6-24.86,2.15-24.86,55.24,0,42.35-2.15,49.1-15.35,46.96Z"/>
                <path id="p183NW0OtZ" class="cls-2" d="m1277.4,1535.2c-6.75-1.23-7.06-2.46-7.06-33.45s-.31-31.92-5.83-31.92c-3.38,0-10.13,4.3-15.04,9.51-7.98,8.59-9.51,8.9-16.88,5.52-8.29-3.68-9.82-7.98-6.44-20.26,1.84-6.44,3.68-7.06,23.02-7.06h21.18v-30.69h-16.88c-15.04,0-17.49-.92-20.56-7.37-3.99-9.51-1.53-16.57,7.37-20.26,5.83-2.15,8.29-1.23,14.73,6.14,6.44,7.37,10.43,8.9,24.55,9.82l16.88.92-.92,16.88c-.31,9.21.31,18.41,1.53,20.56,1.53,2.15,11.36,3.99,22.4,4.6q19.95.92,20.87,10.74c.61,7.06-.92,10.74-6.14,14.42-9.51,6.75-10.74,6.44-16.27-4.3-2.76-5.52-7.06-9.21-10.74-9.21-9.51,0-13.2,11.05-11.36,32.84,2.15,20.56-1.23,34.99-7.67,34.37-2.15-.31-7.06-1.23-10.74-1.84Z"/>
                <path id="p10p5RFmJG" class="cls-2" d="m1882.92,1533.67c-6.75-3.99-6.14-22.1,1.23-44.19,4.6-12.89,10.74-22.71,22.4-34.37l15.96-15.96-4.91-13.81c-2.76-7.67-4.3-14.42-3.07-15.04,1.23-.92,6.75-.31,12.58.61l10.74,2.15,19.03,58c10.43,31.92,18.41,59.23,17.49,60.77-.92,1.23-6.14,2.46-11.97,2.46h-10.13l-11.66-34.37c-6.75-18.72-13.5-34.68-15.35-35.29-6.14-2.15-19.64,28.54-21.79,49.41-1.53,17.49-2.46,19.95-8.59,21.18-3.99.61-9.21,0-11.97-1.53Z"/>
                <path id="p1sWkKRsI" class="cls-2" d="m1572.34,1530.29c-2.46-6.44,3.99-40.51,9.51-51.56,3.07-5.52,11.66-16.57,19.33-24.86,13.5-14.73,13.81-15.04,10.43-26.7-4.91-15.96-5.22-15.65,6.75-15.65s13.5,1.23,22.1,26.09l6.44,18.41,18.11.92c27.93,1.53,38.06,15.96,19.03,27.62-7.98,4.6-8.29,4.6-16.27-4.91-15.96-19.03-17.8-10.43-6.14,26.09,4.3,13.2,7.67,24.86,7.67,26.39,0,1.23-4.91,2.15-10.74,2.15-12.58,0-14.73-3.07-26.09-39.9-6.44-21.18-9.21-26.09-14.12-26.09-7.37,0-18.41,21.79-21.18,42.97-.92,8.29-3.38,16.88-5.22,19.03-4.3,5.22-17.49,5.22-19.64,0Z"/>
                <path id="p12xODqIcd" class="cls-2" d="m2005.68,1494.69c-1.23-1.53-2.76-20.26-3.99-41.43l-1.84-38.67h25.47l-.31,27.01c-.31,40.51-3.07,54.01-11.05,55.24-3.38.61-7.37-.31-8.29-2.15Z"/>
                <path id="p10XxLMKWx" class="cls-2" d="m1342.77,625.24c-16.27-23.02-98.21-149.46-103.12-159.28-8.29-15.65-7.67-19.64,3.68-39.59,23.63-41.74,65.98-68.44,137.49-87.47,134.42-35.91,161.43-46.65,191.81-76.73,10.43-10.13,23.94-27.01,30.38-37.44,6.44-10.74,13.2-18.41,14.73-17.49,2.76,1.84,46.96,67.21,87.77,130.74,14.12,21.48,25.17,42.05,25.17,46.34,0,11.66-28.24,52.17-46.34,66.6-31.3,24.86-58.62,35.6-150.08,58.93-32.84,8.29-67.83,18.41-77.65,22.4-42.05,16.88-77.03,45.73-97.9,81.02l-11.05,19.03-4.91-7.06Z"/>
              </g>
            </g>
          </g>
        </g>
      </g>
    </g>
  </g>
</svg>