<svg xmlns="http://www.w3.org/2000/svg" viewBox="0 0 372.23 385.24"><defs><style>.cls-1,.cls-2{fill:#7dc242;}.cls-2{opacity:0.5;}</style></defs><g id="Layer_2" data-name="Layer 2"><g id="Layer_1-2" data-name="Layer 1"><path class="cls-1" d="M244.68,358.73v25.44c0,1.09,0,1.12-1.07,1.05a19.9,19.9,0,0,1-18.69-17.52,25,25,0,0,1-.19-3.12q-.12-14.07-.21-28.16c0-2.65-.09-5.3-.12-7.95a30.68,30.68,0,0,1,6.77-19.74,39,39,0,0,1,50.51-9.11,33.6,33.6,0,0,1,14.83,18,29.67,29.67,0,0,1,1.47,7.23c.78,10.15-2.15,19.13-9.35,26.4a35.63,35.63,0,0,1-16.85,9.83,41.29,41.29,0,0,1-24.11-.95C246.7,359.79,245.8,359.26,244.68,358.73Zm16.07-14.31c1.08-.07,1.83-.09,2.58-.17a16.7,16.7,0,0,0,11.1-6.17,14.89,14.89,0,0,0,3.78-9.44,15.06,15.06,0,0,0-6.13-12.94,16.82,16.82,0,0,0-12.88-3.48,17,17,0,0,0-9.13,4.37c-6.1,5.31-7.54,13.52-3.2,20A17.25,17.25,0,0,0,260.75,344.42Z"/><path class="cls-1" d="M76.05,286c-1.19,1.23-2.31,2.46-3.5,3.63-3.31,3.26-6.67,6.49-10,9.76-.54.53-.86.5-1.39,0a23.68,23.68,0,0,0-28.34-3.54,24,24,0,0,0-11.91,16,23.55,23.55,0,0,0,1.54,15.31,24.46,24.46,0,0,0,22.17,14.47,23.38,23.38,0,0,0,15.22-5.08c.69-.55,1.32-1.17,2-1.8.2.18.41.34.58.51q6.41,6.4,12.81,12.79c.45.44.51.7,0,1.17a45.13,45.13,0,0,1-14.12,9.16,43.83,43.83,0,0,1-13.31,3.09,44.55,44.55,0,0,1-19.95-3A44.22,44.22,0,0,1,.28,322a44,44,0,0,1,4.82-25.6A43.25,43.25,0,0,1,23,278.17a43.32,43.32,0,0,1,23.8-5.4A43.34,43.34,0,0,1,75.2,285.08l.79.76S76,285.93,76.05,286Z"/><path class="cls-1" d="M102.8,299.78c1.36-1,2.49-1.95,3.75-2.71a23.25,23.25,0,0,1,11.57-3.3,26.77,26.77,0,0,1,12.37,2.36,19,19,0,0,1,9.11,9.46,34.52,34.52,0,0,1,2.85,12.24c.15,2,.16,3.95.16,5.92q0,17.79,0,35.58c0,1.12,0,1.15-1.13,1.07a20.23,20.23,0,0,1-18.61-17.5,21.36,21.36,0,0,1-.11-2.89c0-5.9.09-11.8,0-17.71-.08-4.3-1.78-7.84-5.85-9.73-2.93-1.36-6-.85-8.86.31-3.38,1.34-4.79,4.16-5.35,7.5a28.12,28.12,0,0,0-.3,4.5q0,17.08,0,34.17c0,1.44,0,1.44-1.41,1.34A19.54,19.54,0,0,1,82.7,343a25.53,25.53,0,0,1-.17-3q0-33.51,0-67c0-1.23,0-1.26,1.24-1.21,6.86.25,12.09,3.39,15.85,9.05a20.55,20.55,0,0,1,3.18,11.49c0,2.18,0,4.37,0,6.55Z"/><path class="cls-1" d="M217.72,343.2v17.87c0,1.09,0,1.13-1.08,1.06a17.14,17.14,0,0,1-10.26-4,20.67,20.67,0,0,1-2.09-2,.73.73,0,0,0-1.11-.15c-1.63,1-3.24,2-5,2.8a32.06,32.06,0,0,1-19.41,3.08c-12.85-2-21.83-9.16-27-21a31.89,31.89,0,0,1-2.45-15.11,34.36,34.36,0,0,1,28.72-31.52,31.7,31.7,0,0,1,15.64,1.15c12.84,4.38,20.7,13.27,23.46,26.56a35.38,35.38,0,0,1,.53,6.51C217.77,333.32,217.72,338.26,217.72,343.2Zm-34.21,1.17A16.06,16.06,0,0,0,199.58,328a16.3,16.3,0,0,0-16.42-16.07c-8.65,0-16,7.56-16.06,16.41A16.29,16.29,0,0,0,183.51,344.37Z"/><path class="cls-1" d="M372.22,343.57V361c0,1.12,0,1.17-1.13,1.09a17,17,0,0,1-10.19-4,21.85,21.85,0,0,1-2.1-2c-.43-.47-.74-.45-1.24-.12a35.46,35.46,0,0,1-10.18,4.81,32.93,32.93,0,0,1-27.09-3.63c-9.48-5.81-15-14.36-16.27-25.4s2.34-20.75,10.35-28.57a32.76,32.76,0,0,1,20.54-9.36,33.22,33.22,0,0,1,23.91,7A33.63,33.63,0,0,1,372,323.92a38.24,38.24,0,0,1,.23,4.67C372.24,333.58,372.22,338.58,372.22,343.57Zm-34.28.8a16.66,16.66,0,0,0,16.45-16.17,16.23,16.23,0,1,0-16.45,16.17Z"/><path class="cls-2" d="M366.46,32H306.35c-1.7,0-3.41-.22-5.89-.41L258.77,88.74a6.55,6.55,0,0,1,4.86-1.54c13,.09,26,.19,38.9,0,10.59-.16,21.36.47,31.64-1.42,23.53-4.29,38.24-23.63,38.05-48C372.19,32.28,371.94,32,366.46,32Zm-66.64,70.45c-15.24.18-30.49.09-45.74.06-1.39,0-2.8-.25-5-.41,2.68-3.72,5.17-6.81,7.25-10l-51.54,70.67a8.08,8.08,0,0,1,7.53-3.75c17,.12,34,.09,51,.06a29.11,29.11,0,0,0,6.37-.63c18.52-4.28,38-22.87,35.5-50.85C304.9,103.77,303.79,102.38,299.82,102.45Zm-71.1-70.39q-60.63-.33-121.33-.37s62.54.72,84.22,55.6l43.5-57.71C233.51,31.4,231.49,32.06,228.72,32.06ZM96.27,105.34c-10.62-.22-24.89,8.92-26.81,24s7,29.14,20.51,32.36a21,21,0,0,0,4.88.31q17.2,0,34.41,0c1.32,0,2.64.13,4.63.23l46.31-57.78c-.85,1-3.28,1-4.95,1C148.92,105.56,122.58,105.94,96.27,105.34Z"/><path class="cls-1" d="M313,14.11c-4.22,5.89-8.16,11.37-12.53,17.48L258.77,88.74a7.4,7.4,0,0,0-1.57,2c-.25.45-.54.89-.82,1.33l0,.06-51.54,70.67c-8.76,12.31-17.14,25-26.81,36.57a95.59,95.59,0,0,1-29.81,23.29C86.66,254.3,13.29,217.69,1.44,149.39c-9.54-55,29.4-108.88,84.5-116.51a158.48,158.48,0,0,1,21.45-1.19s62.54.72,84.22,55.6h-4.48q-35.34,0-70.66,0c-6.78,0-13.61-.66-20.32,0-19.25,1.83-35,16.48-38.91,35.38a45,45,0,0,0,74.7,42.15,25.75,25.75,0,0,0,1.95-2.48l46.31-57.78c4.22-5.23,8.07-10.78,12.07-16.23-.22-.31-.44-.66-.66-1l43.5-57.71,0,0a10.32,10.32,0,0,0,1-1.38c2-3.31,4.89-6.18,6.81-9.52C252.47,2.1,276.54-3,292.42,1.63,300.39,4,306.19,9.22,313,14.11Z"/><line class="cls-1" x1="258.77" y1="88.74" x2="256.38" y2="92.02"/></g></g></svg>