<?xml version="1.0" encoding="UTF-8"?>
<svg id="Layer_2" data-name="Layer 2" xmlns="http://www.w3.org/2000/svg" viewBox="0 0 1429.91 1429.74">
  <defs>
    <style>
      .cls-1 {
        fill: #fff;
      }

      .cls-2 {
        fill: #00803d;
      }
    </style>
  </defs>
  <g id="Layer_1-2" data-name="Layer 1">
    <g>
      <path class="cls-2" d="m0,733.41c0-12.39,0-24.78,0-37.18.42-2.03,1.16-4.05,1.22-6.1,1.26-45.59,7.17-90.56,17.41-134.99,30.85-133.81,95.31-249.05,191.91-346.37,35.69-35.96,75.07-67.48,117.7-94.9C425.72,51.18,532.24,14.44,647.52,3.23c35.34-3.44,70.8-4.15,106.31-2.07,26.64,1.56,53.1,4.34,79.44,8.65,68.58,11.22,134.19,31.9,196.35,62.86,149.85,74.65,261.09,187.62,333.16,338.74,40.56,85.05,62.27,175.06,66.58,269.08,1.24,27.06.18,54.28-.92,81.39-1.66,40.53-8.06,80.51-17.74,119.86-38.18,155.16-118.63,284.29-242.03,385.65-120.15,98.69-258.61,152.09-414.03,161.01-2.27.13-4.51.88-6.76,1.34h-64.35c-1.57-.42-3.11-1.09-4.7-1.23-13.04-1.08-26.11-1.87-39.14-3.1-36.55-3.45-72.53-10.2-107.97-19.73-127.12-34.16-236.67-98.4-328.61-192.56-68.63-70.29-120.43-151.44-155.55-243.14C19.83,897.63,4.35,822.7,1.43,745.22c-.15-3.95-.94-7.87-1.43-11.81ZM863.79,252.13c-.21,2.25-.37,3.16-.37,4.07.04,40.5.1,81.01.14,121.51.01,13.93-8.17,21.96-22.34,21.96-49.8,0-99.6,0-149.4,0-10.48,0-21,.51-31.44-.16-11.96-.76-23.68-.04-35.5,1.8-71.64,11.17-126.33,74.53-126.4,146.92-.08,91.49-.02,182.99-.02,274.48,0,2.76,0,5.52,0,9.2,4.35,0,7.63,0,10.91,0,77.92,0,155.84,0,233.76,0,9.77,0,19.55.33,29.31-.05,11.15-.43,22.43-.52,33.38-2.39,72.89-12.46,125.29-74.78,125.15-148.52-.03-13.79-1.16-27.59-1.17-41.38-.1-109.6-.08-219.2.03-328.8,0-4.96-1.02-9.34-3.36-13.61-11.11-20.34-27.36-34.56-49.55-41.67-4.02-1.29-8.2-2.12-13.13-3.36Zm-459.4,783.1h8.57c20.97,0,41.93.07,62.9-.05,4.97-.03,9.98-.42,14.91-1.12,20.13-2.86,42.84-17.22,46.27-45.45,1.99-16.35-3.09-30.01-12.96-42.33-9.16-11.44-21.18-17.33-36.01-17.26-15.72.07-31.45.03-47.17.01-18.23-.02-34.6,5.18-48.88,16.78-13.97,11.35-25.59,24.53-30.32,42.23-9.6,35.91.48,66.27,27.7,91.02,13.93,12.67,30.85,18.85,49.56,19.11,27.63.38,55.27.15,82.91.1,6.78-.01,8.94-2.51,8.4-9.21-1.24-15.28-11.43-27.53-26.37-30.98-5.05-1.17-10.36-1.63-15.56-1.71-14.53-.22-29.09-.59-43.59.06-17.02.76-28.84-7.6-40.37-21.19Zm156.37,63.06h8.21c21.21,0,42.41-.13,63.62.06,9.89.09,19.43-1.49,28.79-4.44,35.58-11.2,68.18-49.6,58.42-98.86-5.96-30.06-24.04-50.59-51.51-63.29-8.54-3.95-17.51-5.98-26.96-5.92-10.48.07-20.97.04-31.45,0-2.32,0-4.64-.22-7.6-.36,0-7.87-.25-15.21.06-22.52.5-11.73-4.16-21.43-11.74-29.75-7.8-8.55-17.75-12.05-29.84-11.07v236.16Zm311.63-.43c0-3.52,0-6.33,0-9.14,0-35.73-.03-71.46.03-107.19.02-9.24,2.14-11.39,11.33-11.57,8.1-.16,16.2-.11,24.3-.02,10.19.11,18.55-4.26,25.4-11.22,7.89-8.02,9.61-18.07,7.88-29.69h-8.15c-23.82,0-47.64-.02-71.46,0-17.23.01-30.71,13.39-30.74,30.71-.06,43.35-.03,86.7,0,130.05,0,2.55.34,5.11.54,8.05h40.86Zm199.59-168.82c-3.03,0-5.58,0-8.12,0-23.82,0-47.63-.02-71.45,0-16.74.02-30.29,13.48-30.31,30.31-.06,43.82-.03,87.63,0,131.45,0,2.28.27,4.57.42,6.95h40.45v-8.91c0-35.24,0-70.49,0-105.73,0-11.33,1.8-13.09,13.36-13.17,6.91-.04,13.83-.29,20.72.06,9.13.46,16.84-2.91,23.71-8.31,10.37-8.15,13.02-19.17,11.21-32.65Zm-277.2,169.11v-170.61c-1.17-.33-1.85-.71-2.51-.68-21.67.87-39.39,17.72-38.95,40.84.55,29.06.13,58.14.13,87.2,0,12.15-.05,24.3.02,36.46.04,6.55.24,6.72,6.91,6.78,7.62.07,15.25.02,22.88.02,3.73,0,7.46,0,11.52,0Zm.84-203c.14-11.78-9.4-21.74-20.8-21.7-10.96.04-20.18,9.27-20.4,20.43-.25,12.67,8.06,21.54,20.28,21.65,12.03.11,20.77-8.41,20.92-20.38Zm91.12,271.22c-4.28-8.74-7.88-16.14-11.51-23.52q-2.72-5.52-9.4-3.93v37.97c2.58-.19,4.56-.34,7.11-.53v-18.58c3.51,4.89,6.09,9.92,8.46,15.04,1.2,2.59,2.57,4.25,5.81,4.19,3.07-.06,4.05-2.04,5.07-4.19,2.27-4.78,4.49-9.59,6.73-14.39.52.14,1.04.28,1.56.41v18.05c2.72-.22,4.67-.38,6.67-.54v-37.76c-5.06-1.84-7.59-.26-9.43,4.1-3.19,7.56-6.92,14.89-11.07,23.69Zm-357.02,5.7c-.71-1.02-1.29-1.74-1.75-2.53-1.04-1.77-2.65-3.52-2.81-5.39-.11-1.2,2.28-2.44,2.94-3.93.76-1.72.85-3.73,1.34-6.16h-9.94c-.72,1.65-1.35,3.09-2.39,5.5-.84-2-1.83-3.22-1.66-4.25.22-1.29,1.57-2.35,2.13-3.64,1.8-4.1,1.13-7.92-1.85-11.22-2.67-2.97-7.38-3.78-11.16-2.1-3.91,1.73-6.09,5.16-5.71,9.72.19,2.28,1.08,4.5,1.78,7.25-3.85,5.56-5.43,12.06.03,17.79,6.13,6.43,13.33,4.49,20.03.74,1.81,1.02,3.38,1.9,5.13,2.89,1.46-1.74,2.63-3.15,3.9-4.66Zm424.62-18.23c.55-.13,1.1-.25,1.65-.38,4.52,6.4,9.17,12.72,13.5,19.24,2.46,3.71,5.33,5.08,9.84,3.23v-38.03c-2.46.15-4.44.28-7.26.45v22.67c-5.95-6.3-10.74-12.76-15.14-19.48-2.58-3.93-5.55-4.52-10.1-2.67,0,11.29-.14,22.46.07,33.62.08,4.33.85,4.52,7.45,2.99v-21.65Zm-257.75,5.82c2.86,2.23,4.72,3.08,5.65,4.53,1.64,2.58,2.87,5.46,3.98,8.33,1.73,4.46,4.55,5.53,9.31,3.26-2.22-5.06-4.38-9.99-6.92-15.76.95-.53,1.86-.92,2.63-1.49,4.27-3.1,4.82-7.49,3.65-12.12-1.17-4.63-4.79-7.36-9.2-7.87-5.25-.61-10.63-.14-16.18-.14v38.05h7.08v-16.77Zm-90.66-5.64c-5.46-.26-10.12-.49-14.99-.72v-7.61c6.23-.28,12.03-.54,17.87-.8v-6.51h-25.99c0,6.75-.15,12.91.04,19.06.19,6.27-.92,12.66.81,18.69h25.12v-6.95h-18.34c.2-3.16.34-5.38.53-8.33h14.95v-6.84Zm116.31,22.3h25.66v-7.11h-17.91v-7.82c5.06-.23,9.72-.44,14.74-.66v-6.71c-5.27-.26-10.11-.5-15.29-.75.23-3.04.4-5.29.62-8.15h17.85v-6.65h-25.66v37.85Zm193.17-.07h25.96c-.18-2.55-.32-4.51-.51-7.24h-18.38c.23-3.08.4-5.32.62-8.22h15.17c-.23-2.72-.39-4.67-.56-6.79-5.28-.24-9.94-.45-14.7-.67v-8.18h18.39c-.21-2.9-.35-4.87-.49-6.82h-25.5v37.92Zm-263.2-38.09c0,7.67-.02,14.52.01,21.36.01,1.89.03,3.81.33,5.67,1.38,8.35,7.23,12.57,16.46,12.02,8.24-.49,13.12-5.35,13.28-13.66.15-7.83-.03-15.67-.13-23.5,0-.63-.52-1.26-.99-2.3-1.97.24-3.95.48-6.4.78,0,8.36.14,16.17-.05,23.97-.13,4.98-2.83,7.23-7.74,7.1-4.7-.13-6.84-2.22-7.09-7.91-.31-7.11-.16-14.24-.27-21.37,0-.64-.47-1.28-.82-2.17h-6.59Zm-75.34,10.5c-.88-7.7-4.26-11-11.21-11.15-6.6-.14-11.55,3.5-12.58,9.25-1.23,6.9,1.46,11.29,8.42,13.6,2.02.67,4.27.91,6.04,1.97,1.2.71,2.68,2.83,2.37,3.75-.5,1.47-2.3,3.32-3.7,3.46-1.81.17-4.37-.66-5.53-2-2.56-2.96-4.98-3-7.97-1.34,1.25,8.56,6.33,12.14,15.04,10.81,6.17-.95,9.66-4.53,10-10.27.32-5.52-2.86-10.2-8.26-11.91-2.03-.64-4.44-.52-6.17-1.58-1.31-.81-2.65-3.07-2.44-4.45.2-1.33,2.26-3.1,3.71-3.31,1.53-.23,3.84.69,4.86,1.9,2.35,2.8,4.66,2.6,7.42,1.27Zm-126.55,2.1c-.85-9.5-4.33-13-11.21-13.24-6.79-.24-11.97,3.59-13.02,9.61-1.07,6.16,1.85,10.85,8.25,13.07,2,.69,4.35.75,6.04,1.85,1.3.85,2.7,3.08,2.44,4.36-.28,1.36-2.38,3.03-3.87,3.24-1.56.22-4-.67-4.9-1.91-2.36-3.27-4.88-3.01-7.9-1.74.57,7.65,3.89,10.94,11.07,11.22,7.65.3,12.52-2.9,13.4-8.81,1.06-7.11-2.07-11.99-9-13.94-1.82-.51-4.02-.38-5.43-1.39-1.26-.91-2.31-3.02-2.24-4.55.05-1.11,2.04-2.97,3.22-3,1.86-.06,3.8,1.05,5.64,1.81,2.12.87,4.18,1.89,7.52,3.42Zm560.39,15.18c-.09,5.58,2.56,9.15,7.23,10.56,5.14,1.55,10.49,1.45,14.67-2.8,3.19-3.24,3.61-8.95,1.38-13.4-2.04-4.06-5.71-5.57-9.82-6.27-2.66-.45-5.56-.65-5.78-4.04-.09-1.35.85-3.42,1.96-4.06,2.45-1.42,5.15-1.14,6.92,1.47,2.1,3.1,4.77,2.16,7.5,1.7-.11-6.99-3.1-10.63-9.16-11.46-6.77-.93-12.51,2.26-14.29,7.94-1.88,6,.59,11.6,6.45,14.07,2.17.91,4.82.87,6.76,2.06,1.52.93,3.41,3.33,3.12,4.62-.33,1.48-2.75,3.02-4.53,3.47-1.21.3-3.44-.85-4.22-2.02-2.03-3.04-4.48-3.02-8.19-1.84Zm-230.47-4.49c3.12-.17,5.27-.13,7.37-.43,6.85-.97,11.44-5.83,11.23-11.7-.22-6.1-4.74-10.78-11.6-11.35-4.64-.39-9.35-.07-14.43-.07v38.5h6.75c.24-5.13.45-9.79.69-14.95Zm-133.28-17.18c-8.16-8.57-20.05-8.97-27.5-1.83-8.22,7.88-8.39,21.52-.38,29.46,7.57,7.5,19.63,7.28,27.56-.86-1.37-1.46-2.76-2.94-4.03-4.3-9.38,4.31-15.05,3.88-19.12-1.19-3.62-4.5-3.53-12.04.19-16.57,3.91-4.76,9.68-5.15,18.35-1.12,1.6-1.17,3.28-2.4,4.92-3.6Zm-282.11-6.1c0,12.15-.15,23.5.07,34.84.09,4.97,3.56,3.72,6.96,3.18.34-5.13.67-9.94,1.04-15.52h15.04c-.2-2.65-.33-4.43-.5-6.63-5.02-.25-9.66-.48-14.65-.73v-7.98c4.6,0,8.81.08,13.01-.02,5.9-.14,5.98-.32,4.67-7.14h-25.64Zm58.84,39.22c-5.62-14.31-10.49-26.75-15.37-39.18-.58.05-1.16.09-1.74.14-4.86,12.51-9.72,25.01-15.1,38.85,3.7-.61,6.61-.28,8.43-1.53,6.17-4.23,9.77-4.29,15.73-.06,1.65,1.17,4.25,1,8.06,1.78Zm375.99-.89c4.2.37,7.07,1.35,9.48-2.58,1.58-2.59,11.06-2.28,12.94.3,2.56,3.53,5.24,3.05,8.97,1.77-5.01-12.86-9.89-25.36-14.76-37.85-.53-.04-1.07-.08-1.6-.12-4.92,12.62-9.85,25.24-15.02,38.49Zm27.59-38.08c.07.59-.02,1.14.2,1.49,1.13,1.8,2.16,3.72,3.56,5.3,7.21,8.14,11.4,17.23,9.57,28.41-.14.84.32,1.78.59,3.13,2.19-.1,4.16-.2,6.5-.31.14-2.83.58-5.19.3-7.46-.91-7.3,1.33-13.35,6.07-18.89,2.94-3.44,5.16-7.48,7.93-11.59-5.7-1.58-9.23-.5-11.74,3.97-1.56,2.78-3.72,5.22-5.93,8.24-2.27-3.13-4.29-5.49-5.82-8.13-2.67-4.62-6.34-5.87-11.25-4.17Zm179.78-.12h-22.2c-2.74,7.8,4.32,5,7.4,7.47,0,8.1-.08,16.62.03,25.14.07,6.09.23,6.13,7.36,4.56v-29.95c3.37-2.03,10.05.31,7.42-7.23Zm-531.02-.04h-22.65v5.29c2.4.65,4.58,1.23,7.48,2.01v31.1c2.83-.19,4.78-.32,7.48-.5v-31.08c2.97-.52,5.21-.91,7.69-1.34v-5.47Zm584.28-.12v27.55c2.59-.21,4.55-.37,6.48-.52v-27.03h-6.48Zm8.68,35.24c-2.62-1.79-4.13-3.6-5.69-3.63-1.19-.03-2.44,2.17-3.66,3.38,1.36,1.27,2.56,3.19,4.14,3.58,1.08.26,2.68-1.62,5.21-3.32Z"/>
      <path class="cls-1" d="m863.79,252.13c4.93,1.25,9.1,2.07,13.13,3.36,22.19,7.11,38.44,21.34,49.55,41.67,2.33,4.27,3.36,8.65,3.36,13.61-.11,109.6-.13,219.2-.03,328.8.01,13.79,1.14,27.59,1.17,41.38.13,73.74-52.26,136.07-125.15,148.52-10.95,1.87-22.23,1.96-33.38,2.39-9.75.37-19.54.05-29.31.05-77.92,0-155.84,0-233.76,0-3.28,0-6.56,0-10.91,0,0-3.68,0-6.44,0-9.2,0-91.49-.07-182.99.02-274.48.07-72.39,54.76-135.75,126.4-146.92,11.81-1.84,23.54-2.56,35.5-1.8,10.44.67,20.96.16,31.44.16,49.8,0,99.6,0,149.4,0,14.17,0,22.35-8.03,22.34-21.96-.04-40.5-.1-81.01-.14-121.51,0-.91.16-1.82.37-4.07Zm-13.46,418.22c-3.27,0-5.85,0-8.42,0-17.63,0-35.26.14-52.89-.08-5.33-.07-9.13,1.33-13,5.43-40.99,43.47-113.51,32.2-139.46-21.49-.78-1.62-1.22-3.4-2.28-6.42h222.66c3.79-18.26,3.73-35.59,1.97-52.86-1.76-17.32-5.18-34.17-13.88-49.79-31.94-57.4-95.93-87.38-160.29-75.04-31.85,6.11-58.14,21.62-80.05,45.1-26.02,27.88-39.16,61.02-39.51,99.04-.21,23.1,4.66,44.91,14.85,66.1,27.33,56.85,88.87,95.94,162.06,82.05,49.45-9.39,84.15-39.17,105.52-84.58.99-2.1,1.61-4.38,2.71-7.46Z"/>
      <path class="cls-1" d="m404.39,1035.23c11.53,13.59,23.35,21.95,40.37,21.19,14.5-.65,29.06-.28,43.59-.06,5.2.08,10.5.54,15.56,1.71,14.93,3.45,25.13,15.69,26.37,30.98.54,6.7-1.61,9.2-8.4,9.21-27.64.05-55.28.28-82.91-.1-18.72-.26-35.63-6.44-49.56-19.11-27.22-24.75-37.31-55.1-27.7-91.02,4.73-17.7,16.35-30.88,30.32-42.23,14.28-11.61,30.65-16.81,48.88-16.78,15.72.02,31.45.06,47.17-.01,14.82-.07,26.85,5.82,36.01,17.26,9.87,12.33,14.94,25.98,12.96,42.33-3.43,28.23-26.15,42.59-46.27,45.45-4.93.7-9.94,1.09-14.91,1.12-20.96.12-41.93.05-62.9.05h-8.57Zm2.15-41.43c20.52,0,39.49.01,58.47,0,5.94,0,11.89.19,17.8-.19,7.69-.49,12.13-5.62,11.97-13.14-.12-5.26-4.87-9.37-12.11-9.47-14.96-.21-29.96-.59-44.88.22-14.2.77-23.73,9.33-31.26,22.59Z"/>
      <path class="cls-1" d="m560.76,1098.29v-236.16c12.09-.98,22.04,2.52,29.84,11.07,7.58,8.32,12.24,18.02,11.74,29.75-.31,7.32-.06,14.66-.06,22.52,2.96.15,5.28.36,7.6.36,10.48.04,20.97.07,31.45,0,9.45-.07,18.42,1.97,26.96,5.92,27.47,12.7,45.56,33.23,51.51,63.29,9.76,49.26-22.84,87.66-58.42,98.86-9.36,2.95-18.91,4.53-28.79,4.44-21.2-.19-42.41-.06-63.62-.06h-8.21Zm41.76-41.85c9.34,0,17.89.1,26.43-.04,5.45-.09,11.05.21,16.31-.94,20.53-4.49,34.82-24.12,34.03-45.96-.75-20.59-16.77-38.75-37.41-41.53-7.96-1.07-16.12-.71-24.2-.89-4.93-.11-9.87-.02-15.16-.02v89.37Z"/>
      <path class="cls-1" d="m872.39,1097.86h-40.86c-.21-2.94-.54-5.5-.54-8.05-.03-43.35-.07-86.7,0-130.05.03-17.32,13.51-30.7,30.74-30.71,23.82-.02,47.64,0,71.46,0h8.15c1.74,11.62.01,21.66-7.88,29.69-6.85,6.96-15.2,11.33-25.4,11.22-8.1-.09-16.2-.14-24.3.02-9.19.18-11.32,2.33-11.33,11.57-.06,35.73-.03,71.46-.03,107.19,0,2.81,0,5.61,0,9.14Z"/>
      <path class="cls-1" d="m1071.99,929.03c1.81,13.48-.84,24.5-11.21,32.65-6.87,5.4-14.58,8.77-23.71,8.31-6.89-.35-13.81-.1-20.72-.06-11.55.07-13.35,1.84-13.36,13.17-.01,35.24,0,70.49,0,105.73v8.91h-40.45c-.15-2.38-.42-4.66-.42-6.95-.02-43.82-.06-87.64,0-131.45.02-16.82,13.57-30.29,30.31-30.31,23.82-.02,47.63,0,71.45,0,2.54,0,5.09,0,8.12,0Z"/>
      <path class="cls-1" d="m794.79,1098.14c-4.06,0-7.79,0-11.52,0-7.63,0-15.25.05-22.88-.02-6.68-.06-6.88-.22-6.91-6.78-.07-12.15-.02-24.3-.02-36.46,0-29.07.42-58.15-.13-87.2-.44-23.12,17.27-39.97,38.95-40.84.66-.03,1.34.35,2.51.68v170.61Z"/>
      <path class="cls-1" d="m795.63,895.14c-.14,11.97-8.89,20.49-20.92,20.38-12.22-.11-20.53-8.98-20.28-21.65.22-11.17,9.43-20.4,20.4-20.43,11.4-.04,20.94,9.91,20.8,21.7Z"/>
      <path class="cls-1" d="m886.75,1166.36c4.15-8.8,7.88-16.13,11.07-23.69,1.84-4.35,4.37-5.94,9.43-4.1v37.76c-2,.16-3.95.32-6.67.54v-18.05c-.52-.14-1.04-.28-1.56-.41-2.24,4.8-4.46,9.61-6.73,14.39-1.02,2.15-2,4.13-5.07,4.19-3.24.06-4.62-1.6-5.81-4.19-2.37-5.13-4.95-10.15-8.46-15.04v18.58c-2.55.19-4.53.34-7.11.53v-37.97q6.67-1.58,9.4,3.93c3.63,7.39,7.24,14.78,11.51,23.52Z"/>
      <path class="cls-1" d="m529.73,1172.07c-1.26,1.51-2.44,2.92-3.9,4.66-1.75-.99-3.32-1.87-5.13-2.89-6.7,3.75-13.9,5.69-20.03-.74-5.45-5.72-3.87-12.23-.03-17.79-.7-2.75-1.59-4.97-1.78-7.25-.38-4.56,1.81-7.99,5.71-9.72,3.78-1.68,8.49-.87,11.16,2.1,2.97,3.3,3.65,7.12,1.85,11.22-.57,1.29-1.91,2.34-2.13,3.64-.18,1.02.82,2.25,1.66,4.25,1.05-2.4,1.67-3.84,2.39-5.5h9.94c-.49,2.43-.58,4.44-1.34,6.16-.66,1.49-3.04,2.73-2.94,3.93.16,1.87,1.77,3.62,2.81,5.39.46.79,1.04,1.51,1.75,2.53Zm-22.48-12.25c-2.88,2.81-3.27,5.4-.84,7.78,2.52,2.48,5.26,2.55,7.89-.24-2.31-2.47-4.5-4.81-7.05-7.54Zm.02-9.51c.78-.02,1.57-.04,2.35-.06v-4.39c-.87.04-1.73.07-2.6.11.08,1.45.17,2.9.25,4.34Z"/>
      <path class="cls-1" d="m954.35,1153.83v21.65c-6.6,1.53-7.37,1.34-7.45-2.99-.21-11.16-.07-22.32-.07-33.62,4.55-1.86,7.53-1.27,10.1,2.67,4.4,6.72,9.19,13.18,15.14,19.48v-22.67c2.82-.18,4.8-.3,7.26-.45v38.03c-4.51,1.86-7.38.49-9.84-3.23-4.33-6.53-8.98-12.84-13.5-19.24-.55.13-1.1.25-1.65.38Z"/>
      <path class="cls-1" d="m696.6,1159.65v16.77h-7.08v-38.05c5.54,0,10.92-.47,16.18.14,4.42.52,8.03,3.25,9.2,7.87,1.17,4.63.63,9.02-3.65,12.12-.78.56-1.68.96-2.63,1.49,2.53,5.77,4.7,10.7,6.92,15.76-4.76,2.27-7.58,1.2-9.31-3.26-1.11-2.87-2.34-5.75-3.98-8.33-.92-1.45-2.79-2.3-5.65-4.53Zm.62-14.34v8.25c2.67-.13,5.32.22,7.61-.54,1.37-.45,2.78-2.53,3.01-4.05.14-.91-1.8-2.77-3.1-3.13-2.19-.61-4.62-.38-7.52-.53Z"/>
      <path class="cls-1" d="m605.94,1154.01v6.84h-14.95c-.19,2.95-.33,5.17-.53,8.33h18.34v6.95h-25.12c-1.73-6.03-.62-12.42-.81-18.69-.19-6.15-.04-12.32-.04-19.06h25.99v6.51c-5.84.26-11.64.52-17.87.8v7.61c4.87.23,9.53.46,14.99.72Z"/>
      <path class="cls-1" d="m722.25,1176.31v-37.85h25.66v6.65h-17.85c-.22,2.86-.39,5.1-.62,8.15,5.18.25,10.02.49,15.29.75v6.71c-5.02.23-9.68.44-14.74.66v7.82h17.91v7.11h-25.66Z"/>
      <path class="cls-1" d="m915.42,1176.24v-37.92h25.5c.14,1.95.28,3.91.49,6.82h-18.39v8.18c4.76.22,9.42.43,14.7.67.18,2.12.34,4.07.56,6.79h-15.17c-.22,2.91-.38,5.14-.62,8.22h18.38c.19,2.73.33,4.69.51,7.24h-25.96Z"/>
      <path class="cls-1" d="m652.22,1138.15h6.59c.35.89.81,1.53.82,2.17.11,7.12-.04,14.25.27,21.37.25,5.69,2.39,7.78,7.09,7.91,4.91.13,7.62-2.12,7.74-7.1.2-7.8.05-15.62.05-23.97,2.46-.3,4.44-.54,6.4-.78.46,1.05.98,1.67.99,2.3.1,7.83.27,15.67.13,23.5-.16,8.31-5.04,13.16-13.28,13.66-9.23.55-15.08-3.67-16.46-12.02-.31-1.86-.32-3.78-.33-5.67-.04-6.85-.01-13.69-.01-21.36Z"/>
      <path class="cls-1" d="m576.88,1148.65c-2.76,1.34-5.07,1.53-7.42-1.27-1.02-1.22-3.33-2.13-4.86-1.9-1.45.22-3.51,1.99-3.71,3.31-.21,1.38,1.12,3.64,2.44,4.45,1.72,1.06,4.13.94,6.17,1.58,5.39,1.71,8.58,6.39,8.26,11.91-.33,5.73-3.83,9.32-10,10.27-8.7,1.34-13.79-2.24-15.04-10.81,2.99-1.66,5.41-1.62,7.97,1.34,1.16,1.34,3.72,2.17,5.53,2,1.4-.13,3.21-1.99,3.7-3.46.31-.92-1.17-3.04-2.37-3.75-1.77-1.06-4.02-1.29-6.04-1.97-6.96-2.32-9.66-6.7-8.42-13.6,1.03-5.75,5.98-9.39,12.58-9.25,6.95.15,10.33,3.45,11.21,11.15Z"/>
      <path class="cls-1" d="m450.33,1150.75c-3.33-1.53-5.4-2.55-7.52-3.42-1.85-.76-3.78-1.86-5.64-1.81-1.17.04-3.17,1.89-3.22,3-.07,1.53.98,3.64,2.24,4.55,1.41,1.02,3.61.88,5.43,1.39,6.93,1.95,10.06,6.82,9,13.94-.88,5.9-5.75,9.1-13.4,8.81-7.18-.28-10.5-3.57-11.07-11.22,3.02-1.26,5.54-1.53,7.9,1.74.89,1.24,3.34,2.13,4.9,1.91,1.49-.21,3.59-1.89,3.87-3.24.27-1.28-1.14-3.51-2.44-4.36-1.69-1.11-4.04-1.16-6.04-1.85-6.4-2.21-9.32-6.91-8.25-13.07,1.05-6.02,6.23-9.85,13.02-9.61,6.88.24,10.37,3.74,11.21,13.24Z"/>
      <path class="cls-1" d="m1010.73,1165.94c3.71-1.18,6.16-1.2,8.19,1.84.78,1.17,3.02,2.32,4.22,2.02,1.78-.45,4.2-1.99,4.53-3.47.29-1.29-1.6-3.69-3.12-4.62-1.95-1.19-4.59-1.14-6.76-2.06-5.86-2.47-8.34-8.07-6.45-14.07,1.79-5.68,7.52-8.87,14.29-7.94,6.06.83,9.05,4.47,9.16,11.46-2.73.46-5.4,1.4-7.5-1.7-1.77-2.61-4.48-2.89-6.92-1.47-1.11.64-2.05,2.71-1.96,4.06.22,3.39,3.12,3.59,5.78,4.04,4.11.7,7.78,2.21,9.82,6.27,2.23,4.44,1.81,10.16-1.38,13.4-4.18,4.24-9.53,4.35-14.67,2.8-4.67-1.41-7.31-4.98-7.23-10.56Z"/>
      <path class="cls-1" d="m780.26,1161.45c-.24,5.15-.45,9.82-.69,14.95h-6.75v-38.5c5.08,0,9.78-.31,14.43.07,6.87.57,11.38,5.25,11.6,11.35.21,5.88-4.38,10.73-11.23,11.7-2.1.3-4.25.26-7.37.43Zm.08-7.93c2.93,0,5.17.44,7.09-.14,1.55-.47,3.59-2.03,3.82-3.38.19-1.13-1.68-3.34-3.08-3.84-2.27-.8-4.9-.59-7.83-.85v8.2Z"/>
      <path class="cls-1" d="m646.98,1144.27c-1.65,1.2-3.32,2.43-4.92,3.6-8.67-4.03-14.45-3.64-18.35,1.12-3.72,4.53-3.81,12.06-.19,16.57,4.07,5.07,9.74,5.5,19.12,1.19,1.28,1.36,2.66,2.84,4.03,4.3-7.93,8.13-20,8.35-27.56.86-8.02-7.94-7.84-21.58.38-29.46,7.45-7.14,19.35-6.75,27.5,1.83Z"/>
      <path class="cls-1" d="m364.87,1138.16h25.64c1.32,6.82,1.23,7-4.67,7.14-4.2.1-8.41.02-13.01.02v7.98c4.99.25,9.63.48,14.65.73.16,2.2.3,3.98.5,6.63h-15.04c-.37,5.58-.7,10.39-1.04,15.52-3.39.54-6.86,1.79-6.96-3.18-.21-11.34-.07-22.68-.07-34.84Z"/>
      <path class="cls-1" d="m423.72,1177.39c-3.81-.78-6.41-.61-8.06-1.78-5.96-4.24-9.56-4.18-15.73.06-1.82,1.25-4.73.92-8.43,1.53,5.38-13.84,10.24-26.34,15.1-38.85.58-.05,1.16-.09,1.74-.14,4.88,12.44,9.76,24.87,15.37,39.18Zm-12.56-11.39c-1.15-3.35-2.02-5.87-2.89-8.4-.45.07-.91.14-1.36.21-.77,2.32-1.54,4.64-2.53,7.62,2.41.2,4.08.34,6.77.57Z"/>
      <path class="cls-1" d="m799.71,1176.5c5.17-13.25,10.09-25.87,15.02-38.49.53.04,1.07.08,1.6.12,4.87,12.5,9.75,25,14.76,37.85-3.74,1.28-6.41,1.76-8.97-1.77-1.87-2.58-11.35-2.89-12.94-.3-2.41,3.93-5.27,2.95-9.48,2.58Zm15.72-21.14c-1.41,4.27-2.31,7-3.49,10.55,2.83-.15,4.53-.24,6.8-.36-1.08-3.31-1.93-5.94-3.31-10.19Z"/>
      <path class="cls-1" d="m827.3,1138.42c4.92-1.7,8.58-.45,11.25,4.17,1.53,2.64,3.55,4.99,5.82,8.13,2.21-3.03,4.37-5.47,5.93-8.24,2.51-4.47,6.04-5.55,11.74-3.97-2.77,4.11-5,8.16-7.93,11.59-4.74,5.54-6.99,11.59-6.07,18.89.28,2.27-.16,4.63-.3,7.46-2.34.11-4.31.2-6.5.31-.27-1.36-.73-2.29-.59-3.13,1.83-11.18-2.36-20.27-9.57-28.41-1.4-1.58-2.43-3.5-3.56-5.3-.22-.35-.13-.9-.2-1.49Z"/>
      <path class="cls-1" d="m1007.07,1138.3c2.64,7.54-4.05,5.2-7.42,7.23v29.95c-7.13,1.57-7.29,1.53-7.36-4.56-.1-8.52-.03-17.04-.03-25.14-3.08-2.47-10.14.33-7.4-7.47h22.2Z"/>
      <path class="cls-1" d="m476.06,1138.26v5.47c-2.48.43-4.71.82-7.69,1.34v31.08c-2.7.18-4.65.31-7.48.5v-31.1c-2.9-.78-5.08-1.37-7.48-2.01v-5.29h22.65Z"/>
      <path class="cls-1" d="m1060.34,1138.14h6.48v27.03c-1.93.16-3.89.31-6.48.52v-27.55Z"/>
      <path class="cls-1" d="m1069.02,1173.38c-2.53,1.71-4.13,3.59-5.21,3.32-1.58-.39-2.78-2.31-4.14-3.58,1.22-1.21,2.47-3.41,3.66-3.38,1.55.04,3.06,1.84,5.69,3.63Z"/>
      <path class="cls-2" d="m850.33,670.35c-1.11,3.07-1.72,5.35-2.71,7.46-21.37,45.41-56.08,75.19-105.52,84.58-73.19,13.89-134.73-25.2-162.06-82.05-10.18-21.18-15.06-43-14.85-66.1.35-38.03,13.49-71.16,39.51-99.04,21.91-23.48,48.2-39,80.05-45.1,64.35-12.34,128.35,17.64,160.29,75.04,8.7,15.63,12.12,32.48,13.88,49.79,1.76,17.27,1.81,34.6-1.97,52.86h-222.66c1.06,3.03,1.5,4.81,2.28,6.42,25.95,53.69,98.47,64.96,139.46,21.49,3.87-4.1,7.67-5.5,13-5.43,17.63.22,35.26.08,52.89.08,2.57,0,5.15,0,8.42,0Zm-56.97-85.95c-9.45-31.35-46.7-55.68-81.82-54.08-34.57,1.57-70.32,26.78-76.16,54.08h157.98Z"/>
      <path class="cls-2" d="m406.53,993.8c7.53-13.26,17.06-21.81,31.26-22.59,14.92-.81,29.92-.43,44.88-.22,7.23.1,11.99,4.21,12.11,9.47.17,7.52-4.28,12.65-11.97,13.14-5.91.38-11.87.19-17.8.19-18.97.02-37.95,0-58.47,0Z"/>
      <path class="cls-2" d="m602.52,1056.43v-89.37c5.3,0,10.23-.09,15.16.02,8.07.18,16.24-.18,24.2.89,20.63,2.78,36.66,20.94,37.41,41.53.8,21.84-13.5,41.47-34.03,45.96-5.26,1.15-10.86.85-16.31.94-8.54.14-17.09.04-26.43.04Z"/>
      <path class="cls-2" d="m507.24,1159.81c2.56,2.73,4.74,5.07,7.05,7.54-2.63,2.8-5.38,2.72-7.89.24-2.43-2.39-2.04-4.98.84-7.78Z"/>
      <path class="cls-2" d="m507.26,1150.3c-.08-1.45-.17-2.9-.25-4.34.87-.04,1.73-.07,2.6-.11v4.39c-.78.02-1.57.04-2.35.06Z"/>
      <path class="cls-2" d="m697.23,1145.31c2.9.15,5.33-.09,7.52.53,1.3.36,3.24,2.21,3.1,3.13-.23,1.52-1.64,3.6-3.01,4.05-2.29.75-4.95.41-7.61.54v-8.25Z"/>
      <path class="cls-2" d="m780.35,1153.52v-8.2c2.94.26,5.56.05,7.83.85,1.4.49,3.27,2.7,3.08,3.84-.22,1.34-2.26,2.91-3.82,3.38-1.93.58-4.16.14-7.09.14Z"/>
      <path class="cls-2" d="m411.16,1166c-2.69-.22-4.36-.36-6.77-.57.99-2.98,1.76-5.3,2.53-7.62.45-.07.91-.14,1.36-.21.87,2.52,1.73,5.05,2.89,8.4Z"/>
      <path class="cls-2" d="m815.43,1155.36c1.38,4.24,2.23,6.87,3.31,10.19-2.27.12-3.97.21-6.8.36,1.17-3.55,2.08-6.28,3.49-10.55Z"/>
      <path class="cls-1" d="m793.36,584.39h-157.98c5.85-27.31,41.59-52.51,76.16-54.08,35.12-1.59,72.37,22.73,81.82,54.08Z"/>
    </g>
  </g>
</svg>