<svg width="133" height="28" viewBox="0 0 133 28" fill="none" xmlns="http://www.w3.org/2000/svg">
<path opacity="0.59" d="M9.86336 9.55379H29.4725C29.4725 12.5577 27.0526 14.9776 24.0487 14.9776H9.86336C8.36139 14.9776 7.10974 13.7259 7.10974 12.224C7.19318 10.8054 8.36139 9.55379 9.86336 9.55379Z" fill="#8DC63F"/>
<path opacity="0.59" d="M29.3056 2.37747L25.3838 7.80127H30.5573C33.5612 7.80127 35.9811 5.38142 35.9811 2.37747H29.3056Z" fill="#8DC63F"/>
<path opacity="0.59" d="M18.7077 7.71783L22.5461 2.37747H9.94617C13.6177 2.37747 17.0388 4.46355 18.7077 7.71783Z" fill="#8DC63F"/>
<path d="M18.7084 7.80228V7.71791L18.624 7.80228H18.7084Z" fill="#7DC242"/>
<path d="M22.7138 2.21061L22.5469 2.37749L18.7085 7.71785V7.8013H18.6251L17.3734 9.5536L13.2847 15.1443C11.6993 16.98 8.86221 17.2304 7.02646 15.645C5.19071 14.0595 4.94038 11.2225 6.5258 9.38672C7.36023 8.46884 8.52844 7.88474 9.78008 7.8013H18.7085L18.7919 7.71785C17.1231 4.46357 13.7019 2.37749 10.0304 2.37749H9.44631C3.85562 2.71127 -0.316535 7.38408 0.017238 12.8079C0.351011 18.2317 5.02383 22.4038 10.4476 22.0701C13.2847 21.9032 15.9549 20.4847 17.6237 18.3151L17.9575 17.8145L23.9654 9.5536L25.2171 7.8013L29.1389 2.37749L30.1402 1.0424C27.8872 -0.709901 24.4661 -0.209243 22.7138 2.21061Z" fill="#7DC242"/>
<path d="M67.8562 5.63301V7.63564C68.3568 7.13498 68.8575 6.80121 69.525 6.55088C70.1926 6.30055 70.9436 6.13367 71.6111 6.13367C75.4495 6.13367 77.3687 8.38663 77.3687 12.8926V22.0713C74.782 22.0713 72.6124 19.9018 72.6124 17.315V13.2263C72.6959 12.4753 72.4456 11.7244 71.9449 11.1403C71.4442 10.6396 70.8601 10.3893 70.1926 10.4727C69.525 10.4727 68.9409 10.723 68.4403 11.1403C67.9396 11.7244 67.7727 12.4753 67.7727 13.2263V22.0713C65.1026 22.0713 63.0165 19.9852 63.0165 17.315V0.876749C65.6867 0.793306 67.8562 2.96283 67.8562 5.63301Z" fill="#7DC242"/>
<path d="M96.8955 14.3105C96.8955 12.8085 97.3127 11.3899 98.1472 10.2217C98.9816 8.9701 100.066 7.96878 101.401 7.30123C103.738 6.04959 106.575 5.8827 109.078 6.80058C110.163 7.21779 111.081 7.80189 111.915 8.55288C112.75 9.30387 113.417 10.2217 113.834 11.1396C114.335 12.1409 114.502 13.3091 114.502 14.3939C114.502 15.4787 114.252 16.6469 113.751 17.6482C113.334 18.6495 112.666 19.5674 111.832 20.2349C110.997 20.9859 110.08 21.57 108.995 21.9872C106.825 22.7382 104.489 22.7382 102.403 21.9872L102.069 21.8203L101.735 21.6535V27.9951C99.065 27.9951 96.9789 25.8256 96.9789 23.2389L96.8955 14.3105ZM101.652 14.3939C101.652 15.0614 101.819 15.729 102.236 16.3131C102.57 16.8972 103.07 17.3979 103.738 17.7316C104.322 18.0654 104.989 18.2323 105.657 18.2323C106.325 18.2323 107.076 18.0654 107.66 17.7316C108.244 17.3979 108.744 16.8972 109.162 16.3131C109.495 15.729 109.746 15.0614 109.746 14.3939C109.746 13.3091 109.329 12.3078 108.578 11.6403C106.992 10.1383 104.489 10.1383 102.987 11.6403C102.152 12.3913 101.652 13.3091 101.652 14.3939Z" fill="#7DC242"/>
<path d="M124.014 6.13126C119.508 6.13126 115.837 9.80275 115.837 14.3087C115.837 18.8146 119.508 22.4861 124.014 22.4861C125.767 22.4861 127.435 21.902 128.854 20.9007C129.688 21.902 130.857 22.4861 132.192 22.4861V14.3087C132.192 9.80275 128.52 6.13126 124.014 6.13126ZM124.014 18.2305C121.845 18.2305 120.176 16.4782 120.176 14.3087C120.176 12.1392 121.928 10.4703 124.098 10.4703C126.267 10.4703 127.936 12.2226 127.936 14.3921C127.853 16.4782 126.1 18.2305 124.014 18.2305Z" fill="#7DC242"/>
<path d="M87.1345 6.13126C82.6285 6.13126 78.957 9.80275 78.957 14.3087C78.957 18.8146 82.6285 22.4861 87.1345 22.4861C88.8868 22.4861 90.5556 21.902 91.9742 20.9007C92.8086 21.902 93.9768 22.4861 95.3119 22.4861V14.3087C95.3119 9.80275 91.6404 6.13126 87.1345 6.13126ZM87.1345 18.2305C84.9649 18.2305 83.2126 16.4782 83.2126 14.3921C83.2126 12.306 84.9649 10.4703 87.051 10.4703C89.2205 10.4703 90.9728 12.2226 90.9728 14.3087C90.9728 16.4782 89.304 18.2305 87.1345 18.2305Z" fill="#7DC242"/>
<path d="M54.0052 17.5663C50.7509 17.5663 48.1642 14.8961 48.1642 11.7252C48.1642 8.47096 50.8344 5.88422 54.0052 5.88422C55.5906 5.88422 57.0092 6.55177 58.0939 7.63653L61.5151 4.2988C57.4264 0.126645 50.6675 0.0432024 46.4953 4.13192C42.3232 8.22063 42.2397 14.9795 46.3284 19.1517C50.4172 23.3238 57.1761 23.4073 61.3482 19.3186L61.4317 19.2351L58.0939 15.8974C57.0926 16.9822 55.5906 17.5663 54.0052 17.5663Z" fill="#7DC242"/>
</svg>
