<?xml version="1.0" encoding="UTF-8"?>
<svg id="Layer_2" data-name="Layer 2" xmlns="http://www.w3.org/2000/svg" viewBox="0 0 1740.33 687.49">
  <defs>
    <style>
      .cls-1 {
        fill: #0772af;
      }

      .cls-2 {
        fill: #f3b31d;
      }
    </style>
  </defs>
  <g id="Layer_1-2" data-name="Layer 1">
    <g>
      <path class="cls-1" d="m434.21,265.71c45.59,0,91.18-.01,136.77,0,16.48,0,21.41,4.21,21.52,18.15.11,13.55-7.99,21.82-22.39,21.92-29.95.22-59.91-.49-89.84.21-37.67.88-72.71,10.5-105.38,30.42-48.76,29.73-81.49,71.31-96.48,126.02-14.89,54.34-5.28,103.9,35.16,145.06,19.73,20.08,44.63,31,72.14,36.37,43.06,8.41,82.23-3.3,116.39-27.78,31.63-22.66,54.29-54.15,60.46-93.76,7.76-49.79-28.08-91.04-77.03-93.83-41.22-2.35-86.32,35-94.1,78.26-2.62,14.57,6.92,37.67,20.13,45.15,7.88,4.47,15.69,9.61,25.88,9.14,9.29-.43,15.03,4.69,15.37,11.24.39,7.49-8.3,17.45-16.31,17.83-22.35,1.05-41.53-6.12-56.58-23.08-19.88-22.41-22.57-48.38-14.05-75.75,15.02-48.29,47.87-80.8,96.85-89.83,48.22-8.89,95.01,1.51,121.77,57.61,10.39,21.79,10.29,45.16,6.9,67.85-4.26,28.58-16.5,54.42-33.23,78.41-16.59,23.8-38.09,41.46-62.53,56.06-21.41,12.79-44.69,21.66-69.26,24.69-22.86,2.81-46.04,1.51-68.69-4.66-30.9-8.41-58.57-22.69-80.52-46.08-24.42-26.02-38.51-57.17-44.49-92.68-5.76-34.15,1.19-66.84,7.05-99.86,4.08-22.95,8.05-45.92,12.17-68.87,5.28-29.42,10.38-58.89,16.14-88.22,2.67-13.61,11.74-19.92,26.72-19.96,37.54-.09,75.09-.03,112.63-.03,8.94,0,17.88,0,26.82,0Z"/>
      <path class="cls-1" d="m416.65,230.75c-37.96,0-75.91.02-113.87,0-17.56-.01-22.91-4.58-21.16-22.23,1.87-18.75,6.15-37.26,9.31-55.88,3.98-23.4,7.88-46.82,11.86-70.23,3.61-21.24,6.97-42.52,11.07-63.66,2.14-11.02,14.9-19.58,25.92-18.67,11.39.95,17.33,9.69,15.57,21.12-6.73,43.68.51,83.73,29.46,118.96,23.2,28.22,53.29,42.96,88.46,47.36,21.49,2.69,43.38,2.37,65.1,3.02,14.34.42,21.35,5.07,21.85,15.53.51,10.78-9.45,22.94-20.34,24.52-3.07.45-6.24.16-9.37.16-37.96,0-75.91,0-113.87,0Z"/>
      <path class="cls-1" d="m940.88,204.01c6.89-1.76,11.81-3.23,16.83-4.27,25.43-5.26,61.27,10.15,67.04,43.15,3.21,18.32-3.11,34.71-4.43,52.01-.4,5.19-2.44,10.24-3.52,15.41-2.27,10.84,1.45,18.16,10.66,21.32,5.85,2.01,17.57-3.49,21.23-9.96,5.93-10.49,3.53-17.96-7.17-23.81-4.11-2.25-8.92-4.62-11.33-8.3-7.99-12.18,2.78-30.32,18.6-31.85,15.68-1.51,35.79,9.07,41.87,28.56,8.5,27.25-.48,50.67-21.07,69.31-20.24,18.32-49.16,22.73-71.4,10.95-13.86-7.34-21.4-18.69-21.64-33.95-.2-12.81,1.17-25.68,2.55-38.45.8-7.39,2.99-14.62,4.53-21.93,2.68-12.73-2.47-26.04-11.65-30.14-10.89-4.86-29.17,1.31-35.92,12.12-7.48,11.99-8.45,25.81-10.88,39.2-3.69,20.34-6.9,40.78-10.91,61.06-2.79,14.12-13.57,21.1-27.6,18.09-6.87-1.48-12.39-5.89-12.12-13.67.33-9.71,1.16-19.48,2.78-29.05,4.99-29.5,10.5-58.91,15.74-88.37,4.63-26,8.94-52.06,13.89-78,1.71-8.98,6.44-16.56,15.77-19.79,7.61-2.63,15.35-2.18,21.31,3.36,5.15,4.79,5.9,11.41,4.31,18.51-2.74,12.26-4.83,24.65-7.49,38.51Z"/>
      <path class="cls-1" d="m121.72,265.71c29.48,0,58.96-.05,88.44.02,19.53.04,24.18,6.79,20.54,26.5-5.11,27.69-9.02,55.59-13.9,83.32-3.88,22.06-8.56,43.97-12.67,65.99-2.26,12.1-3.65,24.37-6.19,36.39-3.06,14.44-14.6,21.36-28.89,18.08-6.25-1.43-10.22-5.41-10.9-11.72-.56-5.3-1.11-10.93.06-16.02,7.23-31.46-.3-60.86-14.35-88.29-19.15-37.38-50.2-60.72-91.85-68.75-12.51-2.41-25.22-3.8-37.88-5.34-10.19-1.24-16.68-11.52-13.15-21.41,4.94-13.83,11.47-18.62,26.95-18.72,29.03-.18,58.07-.05,87.1-.05,2.23,0,4.47,0,6.7,0Z"/>
      <path class="cls-1" d="m1126.44,213.29c7.21-27.09,24.4-49.74,52.72-62.49,23.95-10.79,48.51-13.38,72.58.44,18.78,10.79,28.99,27.84,29.57,48.75.46,16.59-2.57,33.42-5.34,49.93-5.6,33.38-12.34,66.57-18.03,99.94-1.74,10.21-6.68,17.22-15.82,21.21-14.62,6.38-27.25-2.46-24.83-18.08,4.71-30.43,10.33-60.71,15.65-91.04,2.74-15.58,6.07-31.07,8.38-46.71,2.37-16.03-17.31-34.41-34.47-32.77-19.3,1.84-37.18,21.15-40,36.22-5.97,31.99-10.92,64.17-16.54,96.23-2.35,13.41-5.1,26.75-8.11,40.03-3.14,13.84-14.36,21-27.97,17.48-6.65-1.72-12.32-6.01-11.8-14.02.56-8.78,1.58-17.58,3.1-26.25,4.08-23.31,8.53-46.56,13.31-72.38-5.09,1.39-8.59,2.04-11.87,3.3-11.61,4.44-19.63,2.69-24.63-5.63-4.39-7.31-1.56-22.86,6.75-27.52,10.92-6.12,22.9-10.32,37.37-16.64Z"/>
      <path class="cls-2" d="m1289.95,468.64c15.7-5.75,29.3-12.61,43.7-15.61,27.93-5.82,54.28-.68,75.45,19.81,13.18,12.76,18.58,29.11,20.08,47.74,4.68,58.26-41.72,104.44-93.55,113.84-31.13,5.65-58.92-4.19-79.59-29.93-2.28-2.84-5.56-5.11-8.79-6.92-8.69-4.89-11-9.98-9.29-19.71,6.05-34.4,11.83-68.84,17.85-103.25,2.59-14.82,5.28-29.63,8.35-44.35,2.11-10.11,9.23-16.15,18.21-16.44,11.1-.36,16.55,6,14.53,16.75-2.34,12.45-4.55,24.93-6.95,38.08Zm-13.76,75.35c-.66,44.13,27.76,60.81,51.29,59.24,31.53-2.11,54.3-19.97,66.18-50.02,7.26-18.37,5.35-36.07-7.49-51.14-13.2-15.5-30.02-23.49-50.83-17.17-8.39,2.55-16.98,5.52-24.38,10.08-21.32,13.11-33.4,32.35-34.77,49.02Z"/>
      <path class="cls-2" d="m819.68,560.17c3.95,18.97,12.36,31.65,28.98,38.72,17.78,7.56,34.53,4.03,51.16-3.33,2.84-1.26,5.41-3.5,8.34-4.08,6.69-1.32,13.67-1.85,17.99,5.09,3.55,5.72.82,18.1-5.36,21.82-36.64,22.03-86.8,27.88-119.53-12.27-14.85-18.22-18.45-40.67-13.53-63.23,10.72-49.14,41.51-79.67,90.57-90.27,26.52-5.73,52.07-.38,72.33,18.28,13.21,12.16,21.06,28.57,22.15,47.23.31,5.34-.48,10.79.16,16.07,1.98,16.26-8.48,25.82-26.12,25.91-34.41.17-68.81.05-103.22.05-7.49,0-14.98,0-23.92,0Zm118.3-34.7c1.87-26.69-31.58-46.41-54.7-42.26-19.77,3.54-35.37,13.52-47.99,28.58-2.91,3.47-4.69,7.89-8.03,13.68h110.72Z"/>
      <path class="cls-2" d="m1077.08,560.17c3.89,20.8,13.16,32.7,31.02,39.34,16.45,6.12,30.95,3.61,45.93-3.47,5.47-2.59,11.68-4.63,17.65-4.92,10.43-.52,15.61,8.52,11.52,18.2-4.03,9.54-12.52,13.59-21.13,17.28-26.56,11.38-53.33,12.66-79.74-.2-23.59-11.5-35.68-31.77-38.23-56.97-4.31-42.58,14.22-74.98,48.48-98.84,29.2-20.34,61.19-26.57,94.61-12.38,33.11,14.06,47.98,48.47,41.98,82.45-2.33,13.17-11.02,19.43-24.59,19.47-37.07.12-74.14.04-111.21.05-4.81,0-9.63,0-16.29,0Zm6.23-34.89h112.3c-2.44-31.09-33.53-45.37-53.9-42.22-21.11,3.27-38.16,13.67-51.09,30.67-2.53,3.33-4.5,7.08-7.32,11.55Z"/>
      <path class="cls-1" d="m760.16,230.57c-4.86,1.02-8.66,2.28-12.53,2.54-7.87.54-14.58-.87-18.8-9.18-4.13-8.15-1.91-14.67,3.02-20.83,6.32-7.9,13.86-13.84,25.03-12.49,3.48.42,7.06.07,11.48.07,2.3-10.36,4.39-20.14,6.65-29.89,3.12-13.46,11.01-19.21,24.94-18.38,8.78.52,15.22,6.28,14.83,15.13-.46,10.49-2.39,20.91-3.91,33.14,9.31,0,18.95-.02,28.58,0,16.1.05,25.18,8.23,23.77,21.37-1.44,13.36-15.16,23.05-28.99,21.02-9.99-1.46-20.09-2.15-30.9-3.26-4.29,24.33-8.3,47.18-12.37,70.02-.77,4.32-1.97,8.57-2.64,12.9-1.47,9.43,3.44,17.17,12.05,19.37,6.45,1.64,18.86-6.16,22.09-13.89,2.93-7.02-.12-14.62-7.25-19.2-4.68-3-10.47-5.62-13.24-10.01-7.24-11.5,2.2-28.8,16.82-30.97,5.37-.8,11.43.45,16.73,2.16,20.28,6.52,33.8,35.48,28.81,57.29-6.77,29.59-37.82,60.66-78.06,54.87-20.06-2.89-33.68-15.8-38.37-35.32-4.16-17.28,2.3-33.06,4.37-49.41,2.21-17.42,6.12-34.62,9.17-51.93.2-1.15-.59-2.48-1.3-5.12Z"/>
      <path class="cls-1" d="m1383,330.19c8.05,0,16.1-.16,24.14.04,13.22.32,22.17,8.34,22.28,19.68.11,11.3-11.42,23.01-23.39,22.73-22.22-.51-44.47-.93-66.61-2.67-22.2-1.74-43.28-23.45-47.26-42.39-3.88-18.48,2.34-34.98,4.27-52.18,2.54-22.66,8.68-44.88,12.43-67.43,5.69-34.24,40.53-65.35,76.6-65.56,10.73-.06,21.49-.52,32.18.2,5.97.4,12.51,1.66,17.56,4.64,10.74,6.33,13.38,17.93,7.94,28.69-5.38,10.65-17.73,15.59-29.54,10.39-13.9-6.12-27.56-4.84-41.52-1.36-13.27,3.31-20.19,13.28-22.7,25.31-6.12,29.28-11.1,58.81-16.24,88.29-3.36,19.26,7.21,31.38,27.07,31.61,7.6.09,15.2.01,22.8.02Z"/>
      <path class="cls-2" d="m722.17,482.27c-9.27,0-16.71-.08-24.15.02-7.05.1-12.21-2.11-13.55-9.86-1.69-9.71.47-15.88,8.68-18.57,6.16-2.01,13.04-2.23,19.63-2.43,14.99-.47,15.43-.65,17.13-15.62,1.63-14.35,7.82-21.69,18.52-22.01,12.1-.36,16.48,4.72,15.01,17.73-.67,5.91-1.73,11.78-2.93,19.8,8.74,0,15.31-.08,21.89.02,11.97.18,15.43,2.66,16.08,11.28.78,10.31-4.46,17.75-14.23,19.29-4.37.69-8.91.31-13.38.34-5.25.04-10.5,0-16.48,0-3.36,19.73-6.23,38-9.67,56.17-2.24,11.84-4.39,23.34-.33,35.39,3.82,11.33,8.82,20.9,19.89,27.04,5.01,2.78,10.07,7.65,12.27,12.79,3.22,7.54-2.46,13.12-7.93,18.14-5.47,5.03-11.84,4.79-17.39,2.09-17.84-8.68-30.69-22.32-37.72-41.13-6.63-17.72-5.39-35.64-1.83-53.74,3.49-17.73,6.58-35.53,10.47-56.76Z"/>
      <path class="cls-2" d="m1675.96,474.3c11.97-11.57,26.94-18.18,42.97-22.28,15.44-3.95,23.84,3.17,20.77,17.58-.79,3.72-4.32,7.48-7.57,9.89-3.45,2.56-8.01,3.72-12.2,5.16-31.38,10.79-49.51,32.62-54.87,65.3-3.57,21.78-7.21,43.56-11.05,65.29-1.42,8-3.98,15.38-12.71,18.79-11.67,4.56-22.66-3.3-20.52-15.61,5.61-32.16,11.77-64.22,17.65-96.33,2.06-11.27,3.44-22.69,6.07-33.81,4.29-18.13,14.5-22.57,31.44-13.97Z"/>
      <path class="cls-2" d="m1570.67,474.6c12.73-11.43,27.07-18.25,42.79-22.27,11.46-2.93,19.63-.2,21.76,6.92,2.89,9.67-2,19.49-13.18,22.68-21.45,6.12-39.34,17.1-50.3,36.68-5.29,9.44-8.8,20.31-10.98,30.98-4.52,22.08-7.35,44.5-11.42,66.68-1.36,7.43-4.33,14.41-12.49,17.67-11.74,4.68-22.63-3.06-20.53-15.5,5.31-31.38,11.12-62.68,16.76-94,2.27-12.6,4.36-25.23,6.98-37.75,3.4-16.18,14.75-20.84,30.62-12.07Z"/>
      <path class="cls-2" d="m982.39,572.95c1.62-9.43,4.64-27.26,7.76-45.07,5.33-30.45,10.7-60.9,16.12-91.33.7-3.92,1.4-7.91,2.8-11.61,3.65-9.62,15.24-14.8,24.05-9.99,3.19,1.74,6.3,6.68,6.45,10.29.28,6.94-1.33,14.01-2.58,20.95-6.92,38.7-14.54,77.29-20.67,116.11-2.42,15.33-1.58,30.92,8.59,44.66,6.93,9.35,4.95,17.67-3.94,24.29-8.45,6.29-15.81,5.75-23.21-2.99-11.32-13.38-16.47-29.13-15.38-55.3Z"/>
      <path class="cls-2" d="m1463.52,635.23c-10.03.23-16.24-7.3-14.37-17.8,3.41-19.15,7-38.27,10.52-57.4,4.46-24.33,8.85-48.68,13.41-72.99,2.07-11.02,10.42-17.85,20.17-16.93,7.61.72,13.31,7.92,12.08,15.61-3.15,19.64-6.26,39.28-9.7,58.87-4.21,23.93-8.7,47.81-13.14,71.69-2.21,11.89-9.14,18.73-18.97,18.96Z"/>
      <path class="cls-2" d="m1514.77,430.52c-.87,9.43-2.94,18.13-13.11,22.4-10.62,4.46-21.49-2.14-20.33-13.5.69-6.79,3.15-13.76,6.33-19.86,4.03-7.72,12.16-6.67,18.97-5.15,8.28,1.86,8.57,9.03,8.15,16.11Z"/>
    </g>
  </g>
</svg>